<svg width="28" height="29" viewBox="0 0 28 29" fill="none" xmlns="http://www.w3.org/2000/svg">
<circle cx="14" cy="14.6641" r="14" fill="#EB1C24"/>
<path d="M20.7099 9.87392C20.617 9.78019 20.5064 9.7058 20.3845 9.65503C20.2627 9.60426 20.132 9.57812 19.9999 9.57812C19.8679 9.57812 19.7372 9.60426 19.6154 9.65503C19.4935 9.7058 19.3829 9.78019 19.29 9.87392L11.84 17.3339L8.70995 14.1939C8.61343 14.1007 8.49949 14.0274 8.37463 13.9782C8.24978 13.929 8.11645 13.9048 7.98227 13.9072C7.84809 13.9095 7.71568 13.9382 7.5926 13.9917C7.46953 14.0452 7.35819 14.1224 7.26495 14.2189C7.17171 14.3154 7.0984 14.4294 7.04919 14.5542C6.99999 14.6791 6.97586 14.8124 6.97818 14.9466C6.9805 15.0808 7.00923 15.2132 7.06272 15.3363C7.11622 15.4593 7.19343 15.5707 7.28995 15.6639L11.13 19.5039C11.2229 19.5977 11.3335 19.672 11.4554 19.7228C11.5772 19.7736 11.7079 19.7997 11.84 19.7997C11.972 19.7997 12.1027 19.7736 12.2245 19.7228C12.3464 19.672 12.457 19.5977 12.55 19.5039L20.7099 11.3439C20.8115 11.2503 20.8925 11.1366 20.9479 11.0101C21.0033 10.8836 21.0319 10.747 21.0319 10.6089C21.0319 10.4708 21.0033 10.3342 20.9479 10.2077C20.8925 10.0812 20.8115 9.96757 20.7099 9.87392Z" fill="white"/>
</svg>
