<svg width="32" height="33" viewBox="0 0 32 33" fill="none" xmlns="http://www.w3.org/2000/svg">
<circle cx="16" cy="16.6641" r="16" fill="#004A9B"/>
<path d="M21.5575 18.4141C21.3925 18.4141 21.22 18.3616 21.055 18.3241C20.7211 18.2494 20.3928 18.1517 20.0725 18.0316C19.7246 17.905 19.3421 17.9116 18.9987 18.05C18.6554 18.1885 18.3753 18.449 18.2125 18.7816L18.0475 19.1266C17.3191 18.7135 16.6462 18.2094 16.045 17.6266C15.4621 17.0253 14.9581 16.3524 14.545 15.6241L14.89 15.4666C15.2225 15.3037 15.4831 15.0237 15.6216 14.6803C15.76 14.337 15.7666 13.9545 15.64 13.6066C15.5209 13.2833 15.4232 12.9526 15.3475 12.6166C15.31 12.4516 15.28 12.2791 15.2575 12.1141C15.1664 11.5858 14.8897 11.1074 14.4772 10.765C14.0647 10.4226 13.5435 10.2388 13.0075 10.2466H10.75C10.4329 10.2461 10.1194 10.3127 9.82985 10.442C9.54032 10.5713 9.28138 10.7602 9.07001 10.9966C8.85425 11.2393 8.69359 11.5259 8.59908 11.8366C8.50458 12.1473 8.47845 12.4748 8.52251 12.7966C8.9302 15.9182 10.3564 18.8181 12.58 21.0466C14.8085 23.2702 17.7084 24.6964 20.83 25.1041C20.9274 25.1115 21.0251 25.1115 21.1225 25.1041C21.6756 25.1049 22.2096 24.902 22.6225 24.5341C22.8588 24.3227 23.0478 24.0637 23.1771 23.7742C23.3063 23.4847 23.3729 23.1711 23.3725 22.8541V20.6041C23.3685 20.0858 23.1856 19.5849 22.855 19.1859C22.5243 18.7869 22.066 18.5142 21.5575 18.4141ZM21.925 22.9141C21.9248 23.0187 21.9026 23.1222 21.86 23.2178C21.8174 23.3133 21.7552 23.3989 21.6775 23.4691C21.5953 23.544 21.4975 23.5996 21.3911 23.6321C21.2848 23.6645 21.1725 23.6729 21.0625 23.6566C18.2637 23.291 15.6627 22.0156 13.66 20.0266C11.6556 18.0222 10.369 15.4121 10 12.6016C9.98371 12.4916 9.99208 12.3793 10.0245 12.273C10.0569 12.1666 10.1126 12.0688 10.1875 11.9866C10.2585 11.9079 10.3453 11.8452 10.4422 11.8026C10.5392 11.7599 10.6441 11.7383 10.75 11.7391H13C13.1734 11.7348 13.3429 11.7908 13.4796 11.8975C13.6164 12.0041 13.7119 12.1549 13.75 12.3241C13.75 12.5266 13.8175 12.7366 13.8625 12.9391C13.9492 13.332 14.0645 13.718 14.2075 14.0941L13.1575 14.5891C12.977 14.6719 12.8368 14.823 12.7675 15.0091C12.6925 15.1917 12.6925 15.3965 12.7675 15.5791C13.8469 17.8911 15.7054 19.7497 18.0175 20.8291C18.2001 20.9041 18.4049 20.9041 18.5875 20.8291C18.7736 20.7598 18.9247 20.6195 19.0075 20.4391L19.48 19.3891C19.8669 19.5302 20.2628 19.6454 20.665 19.7341C20.86 19.7791 21.07 19.8166 21.2725 19.8466C21.4417 19.8847 21.5924 19.9802 21.6991 20.117C21.8058 20.2537 21.8617 20.4232 21.8575 20.5966L21.925 22.9141ZM17.5 10.1641H16.975C16.7761 10.181 16.592 10.2762 16.4633 10.4288C16.3347 10.5814 16.2718 10.7789 16.2888 10.9778C16.3057 11.1767 16.4009 11.3608 16.5535 11.4895C16.7061 11.6182 16.9036 11.681 17.1025 11.6641H17.5C18.6935 11.6641 19.8381 12.1382 20.682 12.9821C21.5259 13.826 22 14.9706 22 16.1641V16.5616C21.9834 16.7594 22.0459 16.9558 22.1738 17.1076C22.3018 17.2595 22.4847 17.3544 22.6825 17.3716H22.7425C22.9303 17.3723 23.1115 17.3026 23.2503 17.1763C23.3892 17.0499 23.4756 16.8761 23.4925 16.6891V16.1641C23.4925 14.5741 22.8614 13.0491 21.7378 11.9241C20.6142 10.7991 19.09 10.1661 17.5 10.1641ZM19 16.1641C19 16.363 19.079 16.5537 19.2197 16.6944C19.3603 16.835 19.5511 16.9141 19.75 16.9141C19.9489 16.9141 20.1397 16.835 20.2803 16.6944C20.421 16.5537 20.5 16.363 20.5 16.1641C20.5 15.3684 20.1839 14.6054 19.6213 14.0427C19.0587 13.4801 18.2957 13.1641 17.5 13.1641C17.3011 13.1641 17.1103 13.2431 16.9697 13.3837C16.829 13.5244 16.75 13.7151 16.75 13.9141C16.75 14.113 16.829 14.3037 16.9697 14.4444C17.1103 14.585 17.3011 14.6641 17.5 14.6641C17.8978 14.6641 18.2794 14.8221 18.5607 15.1034C18.842 15.3847 19 15.7662 19 16.1641Z" fill="white"/>
</svg>
