<svg width="32" height="33" viewBox="0 0 32 33" fill="none" xmlns="http://www.w3.org/2000/svg">
<circle cx="16" cy="16.6641" r="16" fill="#004A9B"/>
<g clip-path="url(#clip0_91_21)">
<path fill-rule="evenodd" clip-rule="evenodd" d="M20.6568 19.9609C20.464 20.5067 19.6976 20.9582 19.0864 21.0902C18.668 21.1791 18.1224 21.2493 16.284 20.4875C14.2192 19.632 11.352 16.5848 11.352 14.557C11.352 13.5247 11.9472 12.3227 12.988 12.3227C13.4888 12.3227 13.5992 12.3324 13.764 12.7277C13.9568 13.1935 14.4272 14.341 14.4832 14.4586C14.7144 14.9411 14.248 15.2236 13.9096 15.6438C13.8016 15.7702 13.6792 15.9069 13.816 16.1422C13.952 16.3727 14.4224 17.1393 15.1136 17.7547C16.0064 18.5501 16.7304 18.8041 16.9896 18.9121C17.1824 18.9921 17.4128 18.9735 17.5536 18.823C17.732 18.6302 17.9536 18.3102 18.1792 17.9949C18.3384 17.7692 18.5408 17.7411 18.7528 17.8211C18.896 17.8707 20.716 18.7159 20.7928 18.8512C20.8496 18.9496 20.8496 19.4152 20.6568 19.9609ZM16.0016 8.66406H15.9976C11.5872 8.66406 8 12.2523 8 16.6641C8 18.4134 8.56401 20.0363 9.52321 21.3527L8.5264 24.3254L11.6008 23.343C12.8656 24.18 14.3752 24.6641 16.0016 24.6641C20.412 24.6641 24 21.0758 24 16.6641C24 12.2523 20.412 8.66406 16.0016 8.66406Z" fill="white"/>
</g>
<defs>
<clipPath id="clip0_91_21">
<rect width="16" height="16" fill="white" transform="translate(8 8.66406)"/>
</clipPath>
</defs>
</svg>
